<svg xmlns="http://www.w3.org/2000/svg" version="1.1" xmlns:xlink="http://www.w3.org/1999/xlink" xmlns:svgjs="http://svgjs.dev/svgjs" viewBox="0 0 800 800" opacity="1" width="800" height="800"><g stroke-width="1.5" stroke="hsla(88, 86%, 28%, 1.00)" fill="none"><circle r="4.078947368421053" cx="0" cy="0" fill="none"></circle><circle r="4.078947368421053" cx="61.53846153846154" cy="0" fill="none"></circle><circle r="4.078947368421053" cx="123.07692307692308" cy="0" fill="none"></circle><circle r="4.078947368421053" cx="184.6153846153846" cy="0" fill="none"></circle><circle r="4.078947368421053" cx="246.15384615384616" cy="0" fill="none"></circle><circle r="4.078947368421053" cx="307.6923076923077" cy="0" fill="none"></circle><circle r="4.078947368421053" cx="369.2307692307692" cy="0" fill="none"></circle><circle r="4.078947368421053" cx="430.7692307692308" cy="0" fill="none"></circle><circle r="4.078947368421053" cx="492.3076923076923" cy="0" fill="none"></circle><circle r="4.078947368421053" cx="553.8461538461538" cy="0" fill="none"></circle><circle r="4.078947368421053" cx="615.3846153846154" cy="0" fill="none"></circle><circle r="4.078947368421053" cx="676.9230769230769" cy="0" fill="none"></circle><circle r="4.078947368421053" cx="738.4615384615385" cy="0" fill="none"></circle><circle r="4.078947368421053" cx="800" cy="0" fill="none"></circle><circle r="4.078947368421053" cx="0" cy="88.88888888888889" fill="none"></circle><circle r="4.078947368421053" cx="61.53846153846154" cy="88.88888888888889" fill="none"></circle><circle r="4.078947368421053" cx="123.07692307692308" cy="88.88888888888889" fill="none"></circle><circle r="4.078947368421053" cx="184.6153846153846" cy="88.88888888888889" fill="none"></circle><circle r="4.078947368421053" cx="246.15384615384616" cy="88.88888888888889" fill="none"></circle><circle r="4.078947368421053" cx="307.6923076923077" cy="88.88888888888889" fill="none"></circle><circle r="4.078947368421053" cx="369.2307692307692" cy="88.88888888888889" fill="none"></circle><circle r="4.078947368421053" cx="430.7692307692308" cy="88.88888888888889" fill="none"></circle><circle r="4.078947368421053" cx="492.3076923076923" cy="88.88888888888889" fill="none"></circle><circle r="4.078947368421053" cx="553.8461538461538" cy="88.88888888888889" fill="none"></circle><circle r="4.078947368421053" cx="615.3846153846154" cy="88.88888888888889" fill="none"></circle><circle r="4.078947368421053" cx="676.9230769230769" cy="88.88888888888889" fill="none"></circle><circle r="4.078947368421053" cx="738.4615384615385" cy="88.88888888888889" fill="none"></circle><circle r="4.078947368421053" cx="800" cy="88.88888888888889" fill="none"></circle><circle r="4.078947368421053" cx="0" cy="177.77777777777777" fill="none"></circle><circle r="4.078947368421053" cx="61.53846153846154" cy="177.77777777777777" fill="none"></circle><circle r="4.078947368421053" cx="123.07692307692308" cy="177.77777777777777" fill="none"></circle><circle r="4.078947368421053" cx="184.6153846153846" cy="177.77777777777777" fill="none"></circle><circle r="4.078947368421053" cx="246.15384615384616" cy="177.77777777777777" fill="none"></circle><circle r="4.078947368421053" cx="307.6923076923077" cy="177.77777777777777" fill="none"></circle><circle r="4.078947368421053" cx="369.2307692307692" cy="177.77777777777777" fill="none"></circle><circle r="4.078947368421053" cx="430.7692307692308" cy="177.77777777777777" fill="none"></circle><circle r="4.078947368421053" cx="492.3076923076923" cy="177.77777777777777" fill="none"></circle><circle r="4.078947368421053" cx="553.8461538461538" cy="177.77777777777777" fill="none"></circle><circle r="4.078947368421053" cx="615.3846153846154" cy="177.77777777777777" fill="none"></circle><circle r="4.078947368421053" cx="676.9230769230769" cy="177.77777777777777" fill="none"></circle><circle r="4.078947368421053" cx="738.4615384615385" cy="177.77777777777777" fill="none"></circle><circle r="4.078947368421053" cx="800" cy="177.77777777777777" fill="none"></circle><circle r="4.078947368421053" cx="0" cy="266.66666666666663" fill="none"></circle><circle r="4.078947368421053" cx="61.53846153846154" cy="266.66666666666663" fill="none"></circle><circle r="4.078947368421053" cx="123.07692307692308" cy="266.66666666666663" fill="none"></circle><circle r="4.078947368421053" cx="184.6153846153846" cy="266.66666666666663" fill="none"></circle><circle r="4.078947368421053" cx="246.15384615384616" cy="266.66666666666663" fill="none"></circle><circle r="4.078947368421053" cx="307.6923076923077" cy="266.66666666666663" fill="none"></circle><circle r="4.078947368421053" cx="369.2307692307692" cy="266.66666666666663" fill="none"></circle><circle r="4.078947368421053" cx="430.7692307692308" cy="266.66666666666663" fill="none"></circle><circle r="4.078947368421053" cx="492.3076923076923" cy="266.66666666666663" fill="none"></circle><circle r="4.078947368421053" cx="553.8461538461538" cy="266.66666666666663" fill="none"></circle><circle r="4.078947368421053" cx="615.3846153846154" cy="266.66666666666663" fill="none"></circle><circle r="4.078947368421053" cx="676.9230769230769" cy="266.66666666666663" fill="none"></circle><circle r="4.078947368421053" cx="738.4615384615385" cy="266.66666666666663" fill="none"></circle><circle r="4.078947368421053" cx="800" cy="266.66666666666663" fill="none"></circle><circle r="4.078947368421053" cx="0" cy="355.55555555555554" fill="none"></circle><circle r="4.078947368421053" cx="61.53846153846154" cy="355.55555555555554" fill="none"></circle><circle r="4.078947368421053" cx="123.07692307692308" cy="355.55555555555554" fill="none"></circle><circle r="4.078947368421053" cx="184.6153846153846" cy="355.55555555555554" fill="none"></circle><circle r="4.078947368421053" cx="246.15384615384616" cy="355.55555555555554" fill="none"></circle><circle r="4.078947368421053" cx="307.6923076923077" cy="355.55555555555554" fill="none"></circle><circle r="4.078947368421053" cx="369.2307692307692" cy="355.55555555555554" fill="none"></circle><circle r="4.078947368421053" cx="430.7692307692308" cy="355.55555555555554" fill="none"></circle><circle r="4.078947368421053" cx="492.3076923076923" cy="355.55555555555554" fill="none"></circle><circle r="4.078947368421053" cx="553.8461538461538" cy="355.55555555555554" fill="none"></circle><circle r="4.078947368421053" cx="615.3846153846154" cy="355.55555555555554" fill="none"></circle><circle r="4.078947368421053" cx="676.9230769230769" cy="355.55555555555554" fill="none"></circle><circle r="4.078947368421053" cx="738.4615384615385" cy="355.55555555555554" fill="none"></circle><circle r="4.078947368421053" cx="800" cy="355.55555555555554" fill="none"></circle><circle r="4.078947368421053" cx="0" cy="444.44444444444446" fill="none"></circle><circle r="4.078947368421053" cx="61.53846153846154" cy="444.44444444444446" fill="none"></circle><circle r="4.078947368421053" cx="123.07692307692308" cy="444.44444444444446" fill="none"></circle><circle r="4.078947368421053" cx="184.6153846153846" cy="444.44444444444446" fill="none"></circle><circle r="4.078947368421053" cx="246.15384615384616" cy="444.44444444444446" fill="none"></circle><circle r="4.078947368421053" cx="307.6923076923077" cy="444.44444444444446" fill="none"></circle><circle r="4.078947368421053" cx="369.2307692307692" cy="444.44444444444446" fill="none"></circle><circle r="4.078947368421053" cx="430.7692307692308" cy="444.44444444444446" fill="none"></circle><circle r="4.078947368421053" cx="492.3076923076923" cy="444.44444444444446" fill="none"></circle><circle r="4.078947368421053" cx="553.8461538461538" cy="444.44444444444446" fill="none"></circle><circle r="4.078947368421053" cx="615.3846153846154" cy="444.44444444444446" fill="none"></circle><circle r="4.078947368421053" cx="676.9230769230769" cy="444.44444444444446" fill="none"></circle><circle r="4.078947368421053" cx="738.4615384615385" cy="444.44444444444446" fill="none"></circle><circle r="4.078947368421053" cx="800" cy="444.44444444444446" fill="none"></circle><circle r="4.078947368421053" cx="0" cy="533.3333333333334" fill="none"></circle><circle r="4.078947368421053" cx="61.53846153846154" cy="533.3333333333334" fill="none"></circle><circle r="4.078947368421053" cx="123.07692307692308" cy="533.3333333333334" fill="none"></circle><circle r="4.078947368421053" cx="184.6153846153846" cy="533.3333333333334" fill="none"></circle><circle r="4.078947368421053" cx="246.15384615384616" cy="533.3333333333334" fill="none"></circle><circle r="4.078947368421053" cx="307.6923076923077" cy="533.3333333333334" fill="none"></circle><circle r="4.078947368421053" cx="369.2307692307692" cy="533.3333333333334" fill="none"></circle><circle r="4.078947368421053" cx="430.7692307692308" cy="533.3333333333334" fill="none"></circle><circle r="4.078947368421053" cx="492.3076923076923" cy="533.3333333333334" fill="none"></circle><circle r="4.078947368421053" cx="553.8461538461538" cy="533.3333333333334" fill="none"></circle><circle r="4.078947368421053" cx="615.3846153846154" cy="533.3333333333334" fill="none"></circle><circle r="4.078947368421053" cx="676.9230769230769" cy="533.3333333333334" fill="none"></circle><circle r="4.078947368421053" cx="738.4615384615385" cy="533.3333333333334" fill="none"></circle><circle r="4.078947368421053" cx="800" cy="533.3333333333334" fill="none"></circle><circle r="4.078947368421053" cx="0" cy="622.2222222222223" fill="none"></circle><circle r="4.078947368421053" cx="61.53846153846154" cy="622.2222222222223" fill="none"></circle><circle r="4.078947368421053" cx="123.07692307692308" cy="622.2222222222223" fill="none"></circle><circle r="4.078947368421053" cx="184.6153846153846" cy="622.2222222222223" fill="none"></circle><circle r="4.078947368421053" cx="246.15384615384616" cy="622.2222222222223" fill="none"></circle><circle r="4.078947368421053" cx="307.6923076923077" cy="622.2222222222223" fill="none"></circle><circle r="4.078947368421053" cx="369.2307692307692" cy="622.2222222222223" fill="none"></circle><circle r="4.078947368421053" cx="430.7692307692308" cy="622.2222222222223" fill="none"></circle><circle r="4.078947368421053" cx="492.3076923076923" cy="622.2222222222223" fill="none"></circle><circle r="4.078947368421053" cx="553.8461538461538" cy="622.2222222222223" fill="none"></circle><circle r="4.078947368421053" cx="615.3846153846154" cy="622.2222222222223" fill="none"></circle><circle r="4.078947368421053" cx="676.9230769230769" cy="622.2222222222223" fill="none"></circle><circle r="4.078947368421053" cx="738.4615384615385" cy="622.2222222222223" fill="none"></circle><circle r="4.078947368421053" cx="800" cy="622.2222222222223" fill="none"></circle><circle r="4.078947368421053" cx="0" cy="711.1111111111112" fill="none"></circle><circle r="4.078947368421053" cx="61.53846153846154" cy="711.1111111111112" fill="none"></circle><circle r="4.078947368421053" cx="123.07692307692308" cy="711.1111111111112" fill="none"></circle><circle r="4.078947368421053" cx="184.6153846153846" cy="711.1111111111112" fill="none"></circle><circle r="4.078947368421053" cx="246.15384615384616" cy="711.1111111111112" fill="none"></circle><circle r="4.078947368421053" cx="307.6923076923077" cy="711.1111111111112" fill="none"></circle><circle r="4.078947368421053" cx="369.2307692307692" cy="711.1111111111112" fill="none"></circle><circle r="4.078947368421053" cx="430.7692307692308" cy="711.1111111111112" fill="none"></circle><circle r="4.078947368421053" cx="492.3076923076923" cy="711.1111111111112" fill="none"></circle><circle r="4.078947368421053" cx="553.8461538461538" cy="711.1111111111112" fill="none"></circle><circle r="4.078947368421053" cx="615.3846153846154" cy="711.1111111111112" fill="none"></circle><circle r="4.078947368421053" cx="676.9230769230769" cy="711.1111111111112" fill="none"></circle><circle r="4.078947368421053" cx="738.4615384615385" cy="711.1111111111112" fill="none"></circle><circle r="4.078947368421053" cx="800" cy="711.1111111111112" fill="none"></circle><circle r="4.078947368421053" cx="0" cy="800.0000000000001" fill="none"></circle><circle r="4.078947368421053" cx="61.53846153846154" cy="800.0000000000001" fill="none"></circle><circle r="4.078947368421053" cx="123.07692307692308" cy="800.0000000000001" fill="none"></circle><circle r="4.078947368421053" cx="184.6153846153846" cy="800.0000000000001" fill="none"></circle><circle r="4.078947368421053" cx="246.15384615384616" cy="800.0000000000001" fill="none"></circle><circle r="4.078947368421053" cx="307.6923076923077" cy="800.0000000000001" fill="none"></circle><circle r="4.078947368421053" cx="369.2307692307692" cy="800.0000000000001" fill="none"></circle><circle r="4.078947368421053" cx="430.7692307692308" cy="800.0000000000001" fill="none"></circle><circle r="4.078947368421053" cx="492.3076923076923" cy="800.0000000000001" fill="none"></circle><circle r="4.078947368421053" cx="553.8461538461538" cy="800.0000000000001" fill="none"></circle><circle r="4.078947368421053" cx="615.3846153846154" cy="800.0000000000001" fill="none"></circle><circle r="4.078947368421053" cx="676.9230769230769" cy="800.0000000000001" fill="none"></circle><circle r="4.078947368421053" cx="738.4615384615385" cy="800.0000000000001" fill="none"></circle><circle r="4.078947368421053" cx="800" cy="800.0000000000001" fill="none"></circle></g></svg>